<svg id="instagram" xmlns="http://www.w3.org/2000/svg" width="30" height="30" viewBox="0 0 30 30">
  <path id="Caminho_34" data-name="Caminho 34" d="M21.063,0H8.937A8.947,8.947,0,0,0,0,8.937V21.063A8.947,8.947,0,0,0,8.937,30H21.063A8.947,8.947,0,0,0,30,21.063V8.937A8.947,8.947,0,0,0,21.063,0Zm5.919,21.063a5.919,5.919,0,0,1-5.919,5.919H8.937a5.919,5.919,0,0,1-5.919-5.919V8.937A5.919,5.919,0,0,1,8.937,3.018H21.063a5.919,5.919,0,0,1,5.919,5.919V21.063Z" transform="translate(0 0)" fill="#fff"/>
  <path id="Caminho_35" data-name="Caminho 35" d="M6.358,0a6.358,6.358,0,1,0,6.358,6.358A6.366,6.366,0,0,0,6.358,0Zm0,10.244a3.885,3.885,0,1,1,3.885-3.885A3.885,3.885,0,0,1,6.358,10.244Z" transform="translate(8.642 8.642)" fill="#fff"/>
  <circle id="Elipse_1" data-name="Elipse 1" cx="3.381" cy="3.381" r="3.381" transform="translate(18.493 4.81)" fill="#fff"/>
</svg>
