<svg xmlns="http://www.w3.org/2000/svg" width="30" height="25" viewBox="0 0 30 25">
  <path id="twitter" d="M27.273,37.4c-.667.3.892.53.182.7a6.463,6.463,0,0,0,1.7-2.716h0a.338.338,0,0,0-.495-.395h0A11.924,11.924,0,0,1,25.5,36.3a.805.805,0,0,1-.2.025.837.837,0,0,1-.554-.212,6.461,6.461,0,0,0-4.279-1.618,6.9,6.9,0,0,0-2.049.317A6.273,6.273,0,0,0,14.2,39.331a6.925,6.925,0,0,0-.153,2.386.232.232,0,0,1-.058.182.24.24,0,0,1-.178.081h-.023A16.95,16.95,0,0,1,2.128,35.74h0a.338.338,0,0,0-.554.043h0a6.5,6.5,0,0,0,1.052,7.876,5.79,5.79,0,0,1-1.475-.572h0a.338.338,0,0,0-.5.292h0a6.488,6.488,0,0,0,3.778,5.977l-.138,0a5.81,5.81,0,0,1-1.09-.1h0a.339.339,0,0,0-.386.436h0a6.486,6.486,0,0,0,5.12,4.417,11.919,11.919,0,0,1-6.685,2.034H.5a.5.5,0,0,0-.484.374.514.514,0,0,0,.245.567,17.727,17.727,0,0,0,8.92,2.41,17.967,17.967,0,0,0,7.623-1.62,16.836,16.836,0,0,0,5.578-4.187,18.364,18.364,0,0,0,3.415-5.73,18.131,18.131,0,0,0,1.161-6.272v-.1a1.1,1.1,0,0,1,.412-.858A12.8,12.8,0,0,0,29.942,37.9h0a.339.339,0,0,0-.418-.5Z" transform="translate(0 -34.491)" fill="#fff"/>
</svg>
